<?xml version="1.0" encoding="UTF-8"?>
<svg viewBox="0 0 212 87" version="1.1" xmlns="http://www.w3.org/2000/svg" xmlns:xlink="http://www.w3.org/1999/xlink">
    <!-- Generator: Sketch 42 (36781) - http://www.bohemiancoding.com/sketch -->
    <title>giant-gc-opco-logo</title>
    <desc>Created with Sketch.</desc>
    <defs>
        <polygon id="path-1" points="0.06 87 211.519 87 211.519 0.102 0.06 0.102"></polygon>
    </defs>
    <g id="Page-1" stroke="none" stroke-width="1" fill="none" fill-rule="evenodd">
        <g id="Artboard" transform="translate(-11.000000, -9.000000)">
            <g id="MyGiant_GC_WhiteMy" transform="translate(11.000000, -8.000000)">
                <g id="Group-5">
                    <mask id="mask-2" fill="white">
                        <use xlink:href="#path-1"></use>
                    </mask>
                    <g id="Clip-3"></g>
                    <path d="M47.074,57.507 L51.752,57.5 L51.752,62.215 L47.074,57.507 Z M30.59,65.876 L22.094,65.876 C21.802,64.691 21.928,63.001 22.437,61.563 C23.374,59.524 25.455,57.538 26.679,57.538 L30.59,57.532 L30.59,65.876 Z M211.519,42.432 L205.272,35.826 L151.746,35.826 L151.742,50.151 L147.622,43.863 L147.46,43.726 C146.423,42.849 145.439,41.865 144.487,40.912 C142.638,39.062 140.726,37.149 138.187,35.751 C136.927,35.101 135.327,34.744 133.681,34.744 C131.639,34.744 129.776,35.28 128.422,36.256 C125.746,37.766 123.591,41.254 123.282,44.599 C123.09,46.668 123.071,47.782 123.14,48.423 L123.14,70.47 L111.006,45.097 L104.691,38.52 C102.662,36.146 99.638,34.73 96.591,34.73 C94.992,34.73 93.433,35.132 92.077,35.892 C88.554,37.503 87.167,40.765 85.943,43.644 C85.472,44.75 85.028,45.795 84.482,46.752 L74.81,68.608 L74.817,42.675 L68.081,35.771 L51.752,35.771 L51.752,41.986 L45.905,36.1 L20.708,36.1 C15.133,36.121 11.773,37.879 8.16,40.709 C1.589,45.856 -1.482,55.503 0.693,64.167 C2.779,72.48 9.892,78.711 12.929,81.371 L13.2,81.609 C16.205,84.248 23.098,86.962 25.859,86.986 L25.866,86.986 L52.156,86.96 L52.152,81.077 L58.042,86.962 L74.781,86.967 L74.781,85.883 L76.014,86.985 L90.998,86.967 C91.625,86.966 92.872,86.965 93.078,85.843 C93.242,85.455 93.726,84.381 94.291,83.143 L98.133,86.984 L129.931,86.984 L129.915,86.803 L144.613,86.803 L144.613,71.577 L150,79.713 L154.5,85.375 C155.292,86.372 155.792,87 156.443,87 C156.543,87 156.646,86.986 156.754,86.955 C158.78,86.948 171.662,86.962 171.662,86.962 L173.128,86.963 L173.11,57.135 L176.675,57.135 L176.675,80.59 L182.841,86.967 L199.082,86.956 L199.081,57.375 L211.519,57.394 L211.519,42.432 L211.519,42.432 Z" id="Fill-4" fill="#FFFFFF" mask="url(#mask-2)"></path>
                </g>
                <path d="M207.617,81.7 C207.617,83.959 205.785,85.791 203.526,85.791 C201.266,85.791 199.433,83.959 199.433,81.7 C199.433,79.439 201.266,77.607 203.526,77.607 C205.785,77.607 207.617,79.439 207.617,81.7" id="Fill-6" fill="#FFFFFF"></path>
                <path d="M203.526,78.124 C201.554,78.124 199.951,79.728 199.951,81.7 C199.951,83.671 201.554,85.274 203.526,85.274 C205.497,85.274 207.1,83.671 207.1,81.7 C207.1,79.728 205.497,78.124 203.526,78.124 Z M203.526,86.309 C200.983,86.309 198.915,84.241 198.915,81.7 C198.915,79.157 200.983,77.09 203.526,77.09 C206.067,77.09 208.135,79.157 208.135,81.7 C208.135,84.241 206.067,86.309 203.526,86.309 L203.526,86.309 Z" id="Fill-7" fill="#FFFFFF"></path>
                <path d="M202.8,81.45 L202.8,80.212 L203.626,80.212 C204.048,80.212 204.498,80.303 204.498,80.801 C204.498,81.415 204.04,81.45 203.525,81.45 L202.8,81.45 Z M202.8,81.966 L203.497,81.966 L204.553,83.702 L205.233,83.702 L204.095,81.938 C204.683,81.866 205.131,81.554 205.131,80.836 C205.131,80.047 204.664,79.7 203.719,79.7 L202.194,79.7 L202.194,83.702 L202.8,83.702 L202.8,81.966 Z M203.536,85.171 C205.426,85.171 207.043,83.702 207.043,81.692 C207.043,79.7 205.426,78.228 203.536,78.228 C201.623,78.228 200.007,79.7 200.007,81.692 C200.007,83.702 201.623,85.171 203.536,85.171 Z M200.706,81.692 C200.706,80.047 201.945,78.809 203.536,78.809 C205.105,78.809 206.343,80.047 206.343,81.692 C206.343,83.363 205.105,84.593 203.536,84.593 C201.945,84.593 200.706,83.363 200.706,81.692 L200.706,81.692 Z" id="Fill-8" fill="#1A1918"></path>
                <g id="Group-12" transform="translate(1.000000, 36.000000)" fill="#1A1918">
                    <path d="M100.885,30.664 L99.494,27.81 L98.251,30.664 L100.885,30.664 Z M102.567,3.594 L108.749,10.032 L123.565,41.016 L123.565,12.511 C123.56,12.511 123.446,11.596 123.702,8.825 C123.956,6.071 125.759,2.899 128.174,1.582 C130.332,-0.027 134.137,-0.064 136.478,1.143 C140.063,3.118 142.404,6.337 145.477,8.934 L152.166,19.145 L152.171,1.381 L203.603,1.381 L209.017,7.106 L209.017,20.019 L196.58,20 L196.58,49.585 L182.422,49.594 L177.1,44.089 L177.1,19.762 L170.607,19.762 L170.626,49.589 C170.626,49.589 155.422,49.576 155.427,49.585 C155.428,49.589 150.183,42.996 150.183,42.996 L142.111,30.805 L142.111,49.43 L129.088,49.43 L126.674,47.271 C126.711,48.039 127.222,48.771 127.295,49.612 L97.702,49.612 L92.8,44.71 C92.8,44.71 90.55,49.594 90.605,49.594 C90.66,49.594 75.534,49.612 75.534,49.612 L72.279,46.704 L72.279,49.594 L57.61,49.589 L52.177,44.162 L52.177,1.326 L66.426,1.326 L72.315,7.362 L72.306,39.634 L84.716,11.568 C86.801,7.911 87.459,3.192 91.703,1.289 C95.288,-0.759 99.933,0.485 102.567,3.594 L102.567,3.594 Z" id="Fill-9"></path>
                    <path d="M49.745,7.179 L49.745,20.128 L25.638,20.165 C23.489,20.156 21.029,22.909 20.041,25.103 C19.42,26.823 19.164,29.2 19.822,30.92 C19.822,30.92 20.009,31.436 20.297,31.432 L31.016,31.432 L31.016,21.737 L44.111,21.737 L49.635,27.298 L49.653,49.589 L24.833,49.613 C22.575,49.594 15.981,47.106 13.128,44.601 C10.274,42.095 3.112,36.018 1.074,27.902 C-1.157,19.012 2.469,10.304 8.025,5.953 C11.738,3.045 14.756,1.673 19.675,1.655 L44.258,1.655 L49.745,7.179" id="Fill-11"></path>
                </g>
                <path d="M103.494,40.82 L105.104,44.13 L121.272,78.809 C121.382,79.032 121.176,79.055 120.76,79.064 L94.422,79.064 L94.422,67.724 L103.494,67.724 L96.617,51.602 L85.606,79.101 L72.62,79.101 C72.62,79.101 88.323,42.657 89.904,40.545 C91.615,37.994 95.044,36.539 98.044,37.161 C100.238,37.6 102.397,38.917 103.494,40.82" id="Fill-13" fill="#D72331"></path>
                <path d="M140.66,41.021 L153.921,60.847 L153.925,38.131 L204.054,38.131 L204.054,49.58 L191.488,49.58 L191.488,78.918 L178.868,78.918 L178.85,49.178 L165.352,49.178 C165.388,58.982 165.388,78.882 165.388,78.882 L152,78.882 L136.796,55.84 L136.801,78.882 L125.315,78.882 L125.314,46.654 C125.315,44.646 126.183,40.852 128.588,38.839 C130.433,37.294 133.59,36.324 136.782,37.673 C138.209,38.332 139.855,39.594 140.66,41.021" id="Fill-14" fill="#D72331"></path>
                <path d="M44.453,49.58 L21.663,49.58 C18.728,49.58 14.932,53.751 14.42,57.628 C13.927,61.039 16.967,68.195 21.005,68.2 L32.766,68.2 L32.766,58.506 L44.307,58.506 L44.307,79.284 L19.322,79.247 C12.408,78.626 5.531,72.553 3.3,65.529 C0.959,58.323 2.129,49.654 8.238,43.581 C12.628,39.411 16.944,38.177 22.395,38.35 L44.435,38.35 L44.453,49.58" id="Fill-15" fill="#D72331"></path>
                <polygon id="Fill-16" fill="#D72331" points="53.909 79.467 66.731 79.467 66.731 38.094 53.909 38.094"></polygon>
            </g>
        </g>
    </g>
</svg>
